<?xml version="1.0" encoding="UTF-8"?>
<!DOCTYPE svg PUBLIC "-//W3C//DTD SVG 1.1//EN" "http://www.w3.org/Graphics/SVG/1.1/DTD/svg11.dtd">
<svg version="1.1" xmlns="http://www.w3.org/2000/svg" xmlns:xlink="http://www.w3.org/1999/xlink" x="0px" y="0px" width="128" height="128" viewBox="0, 0, 128, 128">
  <g id="Background">
    <rect x="0" y="0" width="128" height="128" fill="#000000" fill-opacity="0"/>
  </g>
  <g id="Background">
    <path d="M18.093,6 L109.907,6 C116.561,6 122,11.439 122,18.093 L122,109.907 C122,116.561 116.561,122 109.907,122 L18.093,122 C11.439,122 6,116.561 6,109.907 L6,18.093 C6,11.439 11.439,6 18.093,6" fill="#727272"/>
    <path d="M37.96,29.561 C38.567,29.205 39.184,28.886 39.809,28.58 C41.39,27.027 43.165,25.656 45.139,24.505 C47.02,23.41 48.992,22.564 51.026,21.953 C51.989,16.144 53.993,10.713 56.99,6 L109.907,6 C116.561,6 122,11.439 122,18.093 L122,80.277 C121.402,80.678 120.79,81.062 120.16,81.427 C111.46,86.506 101.326,87.479 91.494,84.985 C87.917,89.383 84.4,90.707 80.322,94.023 C79.07,91.8 77.504,88.611 77.135,86.072 C76.496,81.696 77.591,80.419 77.591,80.419 L69.927,81.967 L67.731,99.681 C53.985,102.001 38.43,94.115 29.703,79.157 C18.939,60.717 22.638,38.507 37.96,29.561" fill="#EBEDED"/>
    <path d="M43.495,39.042 C54.474,32.635 69.623,38.147 77.33,51.354 C85.044,64.562 82.391,80.464 71.418,86.871 C60.438,93.279 45.29,87.767 37.576,74.559 C29.867,61.351 32.516,45.45 43.495,39.042" fill="#727272"/>
    <path d="M80.984,60.547 C51.048,69.015 39.727,93.635 34.671,122 L73.133,122 C73.842,113.579 73.541,87.108 75.956,83.386 L76.18,83.076 L76.18,82.953 C81.144,77.34 82.903,68.951 80.984,60.547" fill="#EBECEC"/>
  </g>
  <defs/>
</svg>
