<?xml version="1.0" encoding="UTF-8"?>
<!DOCTYPE svg PUBLIC "-//W3C//DTD SVG 1.1//EN" "http://www.w3.org/Graphics/SVG/1.1/DTD/svg11.dtd">
<svg version="1.1" xmlns="http://www.w3.org/2000/svg" xmlns:xlink="http://www.w3.org/1999/xlink" x="0px" y="0px" width="128" height="128" viewBox="0, 0, 128, 128">
  <g id="Background">
    <rect x="0" y="0" width="128" height="128" fill="#000000" fill-opacity="0"/>
  </g>
  <g id="Background"/>
  <g id="Background">
    <g>
      <path d="M18.092,6 L109.903,6 C116.552,6 122,11.441 122,18.096 L122,109.902 C122,116.559 116.552,122 109.903,122 L18.092,122 C11.436,122 6,116.559 6,109.902 L6,18.096 C6,11.441 11.436,6 18.092,6" fill="#737370"/>
      <path d="M18.092,6 L109.903,6 C116.552,6 122,11.441 122,18.096 L122,109.902 C122,116.559 116.552,122 109.903,122 L18.092,122 C11.436,122 6,116.559 6,109.902 L6,18.096 C6,11.441 11.436,6 18.092,6" fill-opacity="0" stroke="#EBEDED" stroke-width="1"/>
    </g>
    <g>
      <path d="M49.128,37 L90,37 L88,96 L49.128,96 z" fill="#82D1F5"/>
      <path d="M49.128,37 L90,37 L88,96 L49.128,96 z" fill-opacity="0" stroke="#82D1F5" stroke-width="6"/>
    </g>
    <g>
      <path d="M49.128,99 L91.128,99" fill="#737370"/>
      <path d="M49.128,99 L91.128,99" fill-opacity="0" stroke="#EBEDED" stroke-width="6"/>
    </g>
    <g>
      <path d="M49.128,29 L49.128,99" fill="#737370"/>
      <path d="M49.128,29 L49.128,99" fill-opacity="0" stroke="#EBEDED" stroke-width="6" stroke-linecap="round"/>
    </g>
    <g>
      <path d="M91.128,99 L91.128,37" fill="#737370"/>
      <path d="M91.128,99 L91.128,37" fill-opacity="0" stroke="#EBEDED" stroke-width="6" stroke-linecap="round"/>
    </g>
    <g>
      <path d="M46,88 C18,88 12,40 46,40" fill="#737370"/>
      <path d="M46,88 C18,88 12,40 46,40" fill-opacity="0" stroke="#EBEDED" stroke-width="8"/>
    </g>
    <g>
      <path d="M91.128,37 C91.128,33.686 94.71,29 99.128,29" fill="#737370"/>
      <path d="M91.128,37 C91.128,33.686 94.71,29 99.128,29" fill-opacity="0" stroke="#EBEDED" stroke-width="6" stroke-linecap="round"/>
    </g>
  </g>
  <defs/>
</svg>
